<svg xmlns="http://www.w3.org/2000/svg" width="1200" height="700" viewBox="0 0 1200 700">
  <defs>
    <linearGradient id="g1" x1="0" y1="0" x2="1" y2="1">
      <stop offset="0%" stop-color="#121720"/>
      <stop offset="100%" stop-color="#0b0d10"/>
    </linearGradient>
    <linearGradient id="accent" x1="0" y1="0" x2="1" y2="0">
      <stop offset="0%" stop-color="#6ea8fe"/>
      <stop offset="100%" stop-color="#3d8bfd"/>
    </linearGradient>
  </defs>
  <rect width="1200" height="700" fill="url(#g1)"/>
  <rect x="40" y="40" width="1120" height="70" rx="18" fill="#171d27"/>
  <circle cx="90" cy="75" r="8" fill="#6ea8fe"/>
  <rect x="130" y="62" width="170" height="24" rx="12" fill="#2b3340"/>
  <rect x="760" y="62" width="110" height="20" rx="10" fill="#2b3340"/>
  <rect x="890" y="62" width="110" height="20" rx="10" fill="#2b3340"/>
  <rect x="1020" y="62" width="90" height="20" rx="10" fill="#2b3340"/>

  <rect x="40" y="145" width="1120" height="500" rx="28" fill="#11161d" stroke="#1f2631"/>
  <rect x="85" y="200" width="430" height="28" rx="14" fill="#2a3340"/>
  <rect x="85" y="245" width="300" height="18" rx="9" fill="#222a35"/>
  <rect x="85" y="290" width="170" height="52" rx="16" fill="url(#accent)"/>
  <rect x="85" y="380" width="480" height="190" rx="22" fill="#1a212b"/>

  <rect x="660" y="200" width="410" height="260" rx="24" fill="#1a212b"/>
  <rect x="690" y="235" width="160" height="16" rx="8" fill="#2d3745"/>
  <rect x="690" y="268" width="240" height="16" rx="8" fill="#252f3b"/>
  <rect x="690" y="305" width="330" height="110" rx="20" fill="#242c37"/>

  <rect x="660" y="490" width="195" height="80" rx="20" fill="#1a212b"/>
  <rect x="875" y="490" width="195" height="80" rx="20" fill="#1a212b"/>
</svg>