<svg xmlns="http://www.w3.org/2000/svg" width="1200" height="700" viewBox="0 0 1200 700">
  <defs>
    <linearGradient id="g2" x1="0" y1="0" x2="1" y2="1">
      <stop offset="0%" stop-color="#131824"/>
      <stop offset="100%" stop-color="#0b0d10"/>
    </linearGradient>
  </defs>
  <rect width="1200" height="700" fill="url(#g2)"/>
  <rect x="60" y="50" width="1080" height="90" rx="22" fill="#171d27"/>
  <rect x="100" y="84" width="180" height="20" rx="10" fill="#6ea8fe"/>
  <rect x="850" y="84" width="90" height="18" rx="9" fill="#2b3340"/>
  <rect x="960" y="84" width="90" height="18" rx="9" fill="#2b3340"/>

  <rect x="60" y="170" width="1080" height="470" rx="32" fill="#11161d" stroke="#1f2631"/>
  <rect x="100" y="220" width="520" height="220" rx="26" fill="#1b2230"/>
  <circle cx="260" cy="330" r="52" fill="#6ea8fe" opacity=".35"/>
  <circle cx="350" cy="305" r="34" fill="#8bb9ff" opacity=".3"/>
  <circle cx="420" cy="355" r="46" fill="#4c95ff" opacity=".25"/>

  <rect x="670" y="225" width="240" height="24" rx="12" fill="#2b3340"/>
  <rect x="670" y="265" width="180" height="18" rx="9" fill="#252f3b"/>
  <rect x="670" y="305" width="300" height="18" rx="9" fill="#252f3b"/>
  <rect x="670" y="345" width="150" height="50" rx="16" fill="#6ea8fe"/>

  <rect x="100" y="485" width="190" height="110" rx="22" fill="#1a212b"/>
  <rect x="315" y="485" width="190" height="110" rx="22" fill="#1a212b"/>
  <rect x="530" y="485" width="190" height="110" rx="22" fill="#1a212b"/>
  <rect x="745" y="485" width="190" height="110" rx="22" fill="#1a212b"/>
</svg>